<svg xmlns="http://www.w3.org/2000/svg" version="1.1" xmlns:xlink="http://www.w3.org/1999/xlink" viewBox="0 0 14.972480445806838 13.03059447418773"><g transform="matrix(0.8481149686216815,0,0,0.8481149686216815,2.12662395645639,10.130389367674436)"><g transform="matrix(1,0,0,1,0,0)" clip-path="url(#SvgjsClipPath100178)"><g clip-path="url(#SvgjsClipPath100176c51134c4-7aaf-42f4-8693-062c5d0e5969)"><path d=" M 3.9975346162422416 -3.5563205541062395 L 3.9975346162422416 -6.833126925363596 L 1.8509750330907504 -6.833126925363596 L 1.8509750330907504 -2.4326239110190553 L 3.4288279075614425 -3.945938591923328 L 3.9975346162422416 -3.5563205541062395 Z" fill="#004a80" transform="matrix(1,0,0,1,0,0)" fill-rule="nonzero"></path></g><g clip-path="url(#SvgjsClipPath100176c51134c4-7aaf-42f4-8693-062c5d0e5969)"><path d=" M 6.793521812863576 -7.988688097453423 L 4.647000759976899 -7.988688097453423 L 4.647000759976899 -3.1112959954840687 L 6.793521812863576 -1.6409040295845676 L 6.793521812863576 -7.988688097453423 Z" fill="#004a80" transform="matrix(1,0,0,1,0,0)" fill-rule="nonzero"></path></g><g clip-path="url(#SvgjsClipPath100176c51134c4-7aaf-42f4-8693-062c5d0e5969)"><path d=" M 9.589547539749724 -4.330740346638446 L 9.589547539749724 -4.366804674506009 L 9.589547539749724 -9.611004897521516 L 7.443026486863049 -9.611004897521516 L 7.443026486863049 -1.2121392427146507 L 9.589547539749724 -3.3492974412510943 L 9.589547539749724 -4.330740346638446 Z" fill="#004a80" transform="matrix(1,0,0,1,0,0)" fill-rule="nonzero"></path></g><g clip-path="url(#SvgjsClipPath100176c51134c4-7aaf-42f4-8693-062c5d0e5969)"><path d=" M 9.98706428185405 -4.264198579301607 L 10.415829068723962 -3.8491505667061094 L 9.589547539749724 -3.0267220642134482 L 7.460288045500515 -0.9068254243144729 L 7.443026486863049 -0.9187698064073615 L 6.793521812863576 -1.363524653175821 L 4.647000759976899 -2.834186330929035 L 3.9975346162422416 -3.279210889551206 L 3.452947853336116 -3.6522994437623275 L 1.8509750330907504 -2.1158666039685903 L 0.8466451504028294 -1.1527255743687324 L 1.8509750330907504 -1.8639172023382562 L 3.4803814018849453 -3.0178215730410045 L 3.9975346162422416 -2.6634972577951626 L 4.647000759976899 -2.2184726991729926 L 6.793521812863576 -0.7480807332734916 L 7.443026486863049 -0.3030947049161359 L 7.520472319142751 -0.2500000000000018 L 9.589547539749724 -2.3096738359919273 L 10.780826267323775 -3.495596856756581 L 11.216680622919792 -3.073690457023875 L 11.792245718737796 -4.898445268434036 L 9.98706428185405 -4.264198579301607 Z" fill="#ffffff" transform="matrix(1,0,0,1,0,0)" fill-rule="nonzero"></path></g></g><g><path d=" M 0.24 0.018000000000000016 L 0.24 1.068 L 0.3765 1.068 L 0.3765 0.018000000000000016 L 0.24 0.018000000000000016 M 1.6410161132812502 0.018000000000000016 L 1.6410161132812502 0.8205 L 1.63501611328125 0.8205 L 0.80251611328125 0 L 0.7950161132812501 0 L 0.7950161132812501 1.068 L 0.86401611328125 1.068 L 0.86401611328125 0.26550000000000007 L 0.8700161132812501 0.26550000000000007 L 1.7025161132812503 1.086 L 1.7100161132812501 1.086 L 1.7100161132812501 0.018000000000000016 L 1.6410161132812502 0.018000000000000016 M 1.9439794921875004 0.8025 Q 1.9469794921875003 0.867 1.9777294921875004 0.9195000000000001 Q 2.0084794921875004 0.9720000000000001 2.0617294921875002 1.00875 Q 2.1149794921875005 1.0455 2.1869794921875005 1.06575 Q 2.2589794921875 1.086 2.3444794921875003 1.086 Q 2.4314794921875005 1.086 2.5012294921875005 1.0650000000000002 Q 2.5709794921875004 1.044 2.6204794921875 1.0050000000000001 Q 2.6699794921875 0.9660000000000001 2.6969794921875003 0.9105000000000001 Q 2.7239794921875005 0.8550000000000001 2.7239794921875005 0.7875000000000001 Q 2.7239794921875005 0.6945000000000001 2.6774794921875005 0.6352500000000001 Q 2.6309794921875005 0.5760000000000001 2.5612294921875005 0.53625 Q 2.4914794921875005 0.49650000000000005 2.4097294921875 0.46950000000000003 Q 2.3279794921875006 0.4425 2.2582294921875006 0.4125000000000001 Q 2.1884794921875 0.38250000000000006 2.1419794921875 0.3435 Q 2.0954794921875 0.3045 2.0954794921875 0.24 Q 2.0954794921875 0.20400000000000007 2.1112294921875003 0.1725 Q 2.1269794921875005 0.14100000000000001 2.1577294921875003 0.11775000000000002 Q 2.1884794921875 0.09450000000000003 2.2334794921875005 0.08025000000000004 Q 2.2784794921875005 0.06600000000000006 2.3369794921875005 0.06600000000000006 Q 2.4344794921875 0.06600000000000006 2.5027294921875 0.10725000000000007 Q 2.5709794921875004 0.14850000000000008 2.5829794921875004 0.237 L 2.6849794921875003 0.237 Q 2.6759794921875004 0.1815 2.6444794921875 0.1372500000000001 Q 2.6129794921875003 0.09300000000000008 2.5649794921875 0.06225000000000014 Q 2.5169794921875006 0.031500000000000083 2.4562294921875 0.01574999999999993 Q 2.3954794921875004 0 2.3294794921875 0 Q 2.2604794921875 0 2.1982294921875005 0.018000000000000016 Q 2.1359794921875004 0.03600000000000003 2.0887294921875004 0.07050000000000001 Q 2.0414794921875004 0.1050000000000001 2.0137294921875 0.15750000000000008 Q 1.9859794921875003 0.21000000000000008 1.9859794921875003 0.2775000000000001 Q 1.9859794921875003 0.366 2.0309794921875004 0.42000000000000004 Q 2.0759794921875003 0.4740000000000001 2.1442294921875003 0.51 Q 2.2124794921875 0.546 2.2919794921875005 0.5715000000000001 Q 2.3714794921875004 0.597 2.4397294921875003 0.6292500000000001 Q 2.5079794921875003 0.6615 2.5529794921875 0.7080000000000001 Q 2.5979794921875 0.7545000000000001 2.5979794921875 0.8325 Q 2.5979794921875 0.93 2.5267294921875 0.9750000000000001 Q 2.4554794921875005 1.02 2.3369794921875005 1.02 Q 2.2424794921875004 1.02 2.1854794921875005 0.9952500000000001 Q 2.1284794921875 0.9705 2.0984794921875003 0.936 Q 2.0684794921875005 0.9015000000000001 2.0579794921875005 0.86475 Q 2.0474794921875 0.8280000000000001 2.0459794921875005 0.8025 L 1.9439794921875004 0.8025 M 3.0644794921875 0.018000000000000016 L 3.0644794921875 1.068 L 3.2009794921875003 1.068 L 3.2009794921875003 0.018000000000000016 L 3.0644794921875 0.018000000000000016 M 4.57499560546875 0.6000000000000001 L 4.2779956054687505 0.6000000000000001 L 4.2779956054687505 0.6615 L 4.445995605468751 0.6615 L 4.445995605468751 0.933 Q 4.37849560546875 0.9765 4.307995605468751 0.9975 Q 4.23749560546875 1.0185 4.14749560546875 1.0185 Q 4.02899560546875 1.0185 3.94049560546875 0.9825 Q 3.8519956054687503 0.9465000000000001 3.7934956054687503 0.88275 Q 3.7349956054687503 0.8190000000000001 3.70574560546875 0.7312500000000001 Q 3.6764956054687503 0.6435000000000001 3.6764956054687503 0.5385000000000001 Q 3.6764956054687503 0.43500000000000005 3.70424560546875 0.3480000000000001 Q 3.73199560546875 0.261 3.78749560546875 0.19800000000000006 Q 3.8429956054687504 0.135 3.9232456054687503 0.10050000000000003 Q 4.00349560546875 0.06600000000000006 4.10999560546875 0.06600000000000006 Q 4.18049560546875 0.06600000000000006 4.24199560546875 0.08100000000000007 Q 4.3034956054687505 0.09600000000000009 4.351495605468751 0.12 Q 4.399495605468751 0.14400000000000002 4.43024560546875 0.17475000000000007 Q 4.46099560546875 0.20550000000000002 4.46999560546875 0.237 L 4.57799560546875 0.237 Q 4.56449560546875 0.20400000000000007 4.53224560546875 0.16275000000000006 Q 4.49999560546875 0.12150000000000005 4.4444956054687506 0.08550000000000002 Q 4.38899560546875 0.0495000000000001 4.307245605468751 0.02475000000000005 Q 4.22549560546875 0 4.1144956054687505 0 Q 3.98699560546875 0 3.8797456054687505 0.03600000000000003 Q 3.7724956054687504 0.07200000000000006 3.69449560546875 0.13950000000000007 Q 3.6164956054687503 0.20700000000000007 3.5729956054687504 0.30525 Q 3.52949560546875 0.4035000000000001 3.52949560546875 0.528 Q 3.52949560546875 0.6345000000000001 3.56324560546875 0.7342500000000001 Q 3.5969956054687504 0.8340000000000001 3.6667456054687504 0.9127500000000001 Q 3.7364956054687504 0.9915 3.84449560546875 1.03875 Q 3.95249560546875 1.086 4.10249560546875 1.086 Q 4.21499560546875 1.086 4.3019956054687505 1.06125 Q 4.38899560546875 1.0365 4.445995605468751 1.0065 L 4.445995605468751 1.068 L 4.57499560546875 1.068 L 4.57499560546875 0.6000000000000001 M 4.980020507812499 0.546 L 5.6085205078125 0.546 L 5.6085205078125 1.068 L 5.7450205078125 1.068 L 5.7450205078125 0.018000000000000016 L 5.6085205078125 0.018000000000000016 L 5.6085205078125 0.4770000000000001 L 4.980020507812499 0.4770000000000001 L 4.980020507812499 0.018000000000000016 L 4.843520507812499 0.018000000000000016 L 4.843520507812499 1.068 L 4.980020507812499 1.068 L 4.980020507812499 0.546 M 6.492025634765625 1.068 L 6.492025634765625 0.10050000000000003 L 6.894025634765625 0.10050000000000003 L 6.894025634765625 0.018000000000000016 L 5.953525634765625 0.018000000000000016 L 5.953525634765625 0.10050000000000003 L 6.355525634765625 0.10050000000000003 L 6.355525634765625 1.068 L 6.492025634765625 1.068 M 7.102513916015624 0.018000000000000016 L 7.102513916015624 1.068 L 7.239013916015624 1.068 L 7.239013916015624 0.6045 L 7.305013916015625 0.6045 Q 7.347013916015625 0.6045 7.374763916015625 0.6120000000000001 Q 7.402513916015625 0.6195 7.425013916015625 0.6375000000000001 Q 7.447513916015625 0.6555 7.467013916015625 0.684 Q 7.486513916015625 0.7125000000000001 7.513513916015625 0.7545000000000001 L 7.632013916015625 0.93 Q 7.654513916015625 0.9645 7.676263916015625 0.9930000000000001 Q 7.698013916015625 1.0215 7.723513916015625 1.04175 Q 7.749013916015625 1.062 7.781263916015624 1.074 Q 7.813513916015625 1.086 7.8585139160156245 1.086 Q 7.891513916015625 1.086 7.912513916015625 1.083 Q 7.933513916015625 1.08 7.954513916015625 1.068 L 7.954513916015625 1.0125 Q 7.947013916015624 1.014 7.939513916015625 1.01475 Q 7.932013916015625 1.0155 7.924513916015624 1.0155 Q 7.893013916015625 1.0155 7.869013916015625 1.0065 Q 7.845013916015625 0.9975 7.824013916015625 0.9802500000000001 Q 7.803013916015624 0.9630000000000001 7.783513916015624 0.93825 Q 7.7640139160156245 0.9135000000000001 7.743013916015625 0.8820000000000001 Q 7.680013916015625 0.7905 7.6455139160156245 0.7357500000000001 Q 7.611013916015625 0.681 7.590763916015625 0.651 Q 7.570513916015624 0.621 7.557763916015625 0.6075 Q 7.545013916015625 0.5940000000000001 7.527013916015624 0.5850000000000001 L 7.512013916015625 0.5775000000000001 L 7.512013916015625 0.5715000000000001 Q 7.584013916015625 0.5670000000000001 7.635763916015625 0.54 Q 7.687513916015624 0.513 7.720513916015625 0.47250000000000003 Q 7.753513916015625 0.43200000000000005 7.768513916015625 0.38475000000000004 Q 7.783513916015624 0.3375 7.783513916015624 0.2925000000000001 Q 7.783513916015624 0.252 7.767763916015625 0.20400000000000007 Q 7.752013916015625 0.15600000000000003 7.713763916015624 0.11475000000000002 Q 7.675513916015625 0.07350000000000001 7.609513916015625 0.04574999999999996 Q 7.543513916015625 0.018000000000000016 7.443013916015625 0.018000000000000016 L 7.102513916015624 0.018000000000000016 M 7.239013916015624 0.08400000000000007 L 7.390513916015625 0.08400000000000007 Q 7.447513916015625 0.08400000000000007 7.493263916015625 0.10050000000000003 Q 7.539013916015625 0.11699999999999999 7.572013916015624 0.14625 Q 7.605013916015625 0.1755 7.6222639160156245 0.21600000000000008 Q 7.639513916015624 0.25650000000000006 7.639513916015624 0.3045 Q 7.639513916015624 0.3450000000000001 7.6237639160156245 0.3862500000000001 Q 7.608013916015625 0.4275000000000001 7.5765139160156245 0.46125000000000005 Q 7.545013916015625 0.495 7.499263916015624 0.516 Q 7.453513916015624 0.537 7.393513916015625 0.537 L 7.239013916015624 0.537 L 7.239013916015624 0.08400000000000007 M 8.178040283203124 0.018000000000000016 L 8.178040283203124 1.068 L 8.856040283203125 1.068 L 8.856040283203125 0.9855 L 8.314540283203124 0.9855 L 8.314540283203124 0.546 L 8.779540283203124 0.546 L 8.779540283203124 0.4770000000000001 L 8.314540283203124 0.4770000000000001 L 8.314540283203124 0.10050000000000003 L 8.856040283203125 0.10050000000000003 L 8.856040283203125 0.018000000000000016 L 8.178040283203124 0.018000000000000016 M 9.216024902343749 0.6300000000000001 Q 9.255024902343749 0.6405000000000001 9.300024902343749 0.6472500000000001 Q 9.345024902343749 0.654 9.399024902343749 0.654 Q 9.490524902343749 0.654 9.56102490234375 0.6285000000000001 Q 9.631524902343749 0.603 9.678774902343749 0.5587500000000001 Q 9.726024902343749 0.5145000000000001 9.75002490234375 0.4567500000000001 Q 9.774024902343749 0.399 9.774024902343749 0.3330000000000001 Q 9.774024902343749 0.27 9.75302490234375 0.21225000000000005 Q 9.732024902343749 0.15450000000000008 9.68927490234375 0.11175000000000002 Q 9.64652490234375 0.06900000000000006 9.582024902343749 0.043500000000000094 Q 9.51752490234375 0.018000000000000016 9.43052490234375 0.018000000000000016 L 9.07952490234375 0.018000000000000016 L 9.07952490234375 1.068 L 9.216024902343749 1.068 L 9.216024902343749 0.6300000000000001 M 9.216024902343749 0.08400000000000007 L 9.37352490234375 0.08400000000000007 Q 9.43652490234375 0.08400000000000007 9.48452490234375 0.10650000000000004 Q 9.532524902343749 0.129 9.56402490234375 0.16575000000000006 Q 9.59552490234375 0.2025 9.61127490234375 0.24825000000000008 Q 9.627024902343749 0.29400000000000004 9.627024902343749 0.3390000000000001 Q 9.627024902343749 0.38250000000000006 9.61277490234375 0.4267500000000001 Q 9.59852490234375 0.4710000000000001 9.56702490234375 0.507 Q 9.535524902343749 0.543 9.487524902343749 0.5655 Q 9.439524902343749 0.5880000000000001 9.37202490234375 0.5880000000000001 Q 9.32552490234375 0.5880000000000001 9.28652490234375 0.58425 Q 9.24752490234375 0.5805 9.216024902343749 0.5685 L 9.216024902343749 0.08400000000000007 M 9.997489013671874 1.068 L 9.997489013671874 0.018000000000000016 L 10.133989013671874 0.018000000000000016 L 10.133989013671874 0.9855 L 10.675489013671875 0.9855 L 10.675489013671875 1.068 L 9.997489013671874 1.068 M 11.4824736328125 0.7590000000000001 L 11.6264736328125 1.068 L 11.7719736328125 1.068 L 11.2829736328125 0.018000000000000016 L 11.2079736328125 0.018000000000000016 L 10.7639736328125 1.068 L 10.8329736328125 1.068 L 10.9649736328125 0.7590000000000001 L 11.4824736328125 0.7590000000000001 M 11.450973632812499 0.6915 L 10.9934736328125 0.6915 L 11.2094736328125 0.18600000000000005 L 11.215473632812499 0.18600000000000005 L 11.450973632812499 0.6915 M 11.72542529296875 0.018000000000000016 L 12.088425292968749 0.6705000000000001 L 12.088425292968749 1.068 L 12.224925292968749 1.068 L 12.224925292968749 0.657 L 12.593925292968748 0.018000000000000016 L 12.512925292968749 0.018000000000000016 L 12.19192529296875 0.5715000000000001 L 12.185925292968749 0.5715000000000001 L 11.87992529296875 0.018000000000000016 L 11.72542529296875 0.018000000000000016" fill="#ffffff" fill-rule="nonzero"></path></g><g></g></g><defs><clipPath id="SvgjsClipPath100178"><path d=" M 0.8466451504028294 -9.611004897521516 h 10.945600568334966 v 9.361004897521516 h -10.945600568334966 Z"></path></clipPath><clipPath id="SvgjsClipPath100176c51134c4-7aaf-42f4-8693-062c5d0e5969"><path d=" M 0.8466451504028294 -9.611004897521516 L 11.792245718737796 -9.611004897521516 L 11.792245718737796 -0.25 L 0.8466451504028294 -0.25 Z"></path></clipPath></defs></svg>